<svg xmlns="http://www.w3.org/2000/svg" width="83" height="83" viewBox="0 0 83 83" fill="none"><path d="M41.5 1.29688C19.2897 1.29688 1.29688 19.2923 1.29688 41.5C1.29688 63.7077 19.2923 81.7031 41.5 81.7031C63.7103 81.7031 81.7031 63.7077 81.7031 41.5C81.7031 19.2923 63.7077 1.29688 41.5 1.29688Z" fill="white"></path><path d="M46.7609 30.5067C47.2815 29.8268 47.3377 28.8207 47.4503 28.4717C47.4409 25.6027 45.9591 23.4862 43.741 22.5978C41.4104 21.6687 38.7749 22.1809 37.0305 23.8986C35.2297 25.6707 34.7608 28.1363 35.8956 30.3707C36.374 31.3134 37.0211 32.1791 37.5979 33.0765C41.0071 38.3295 41.0399 43.5824 37.6401 48.8535C37.0211 49.8143 36.3271 50.7434 35.8394 51.7632C34.3716 54.827 35.9894 58.3985 39.2814 59.5134C41.6683 60.3202 44.285 59.6902 45.9215 57.9045C47.6097 56.0644 48.2147 53.4719 46.6765 51.4097C41.4104 44.3484 41.4385 37.4774 46.7563 30.5067H46.7609Z" fill="#FFD636"></path><path d="M59.6024 43.1469C57.329 41.6198 57.2831 40.4563 59.419 38.6974C61.1057 37.3112 61.8116 35.6251 61.752 33.5344C61.7062 31.9437 61.7199 30.353 61.6099 28.7668C61.092 21.1859 55.6835 16.1137 47.9512 16.041C41.1447 15.9728 34.3383 16.0092 27.5272 16.0137C23.9796 16.0183 23.0171 16.95 23.0125 20.4405C22.9988 27.2579 23.0125 34.0798 23.0079 40.8972C23.0079 47.9418 22.985 54.991 23.0171 62.0356C23.0308 64.9762 24.0896 65.9761 27.046 65.9806C34.5399 65.9897 42.0385 66.0261 49.5325 65.967C55.6468 65.917 60.7757 61.8675 62.0178 55.9181C62.4899 53.6502 62.2699 51.2505 62.4487 48.9144C62.6412 46.4102 61.7245 44.574 59.5978 43.1469H59.6024ZM45.7236 57.9497C44.1194 59.7404 41.5664 60.3722 39.2334 59.5632C36.0158 58.4451 34.4299 54.8683 35.8691 51.7914C36.3458 50.7688 37.0242 49.837 37.6292 48.8735C40.9522 43.5878 40.9201 38.3202 37.5879 33.0526C37.0196 32.1573 36.3917 31.2847 35.9241 30.3393C34.8149 28.0987 35.2733 25.6262 37.0333 23.8492C38.7384 22.1267 41.3143 21.6131 43.5923 22.5448C45.7649 23.4356 47.2087 25.5581 47.2178 28.435C47.1078 28.785 47.0528 29.7985 46.544 30.4757C41.3418 37.4658 41.3189 44.3513 46.4661 51.4369C47.9695 53.5093 47.3782 56.109 45.7282 57.9497H45.7236Z" fill="black"></path></svg>