<svg xmlns="http://www.w3.org/2000/svg" width="83" height="83" viewBox="0 0 83 83" fill="none"><path d="M41.5 1.29688C19.2897 1.29688 1.29688 19.2923 1.29688 41.5C1.29688 63.7077 19.2923 81.7031 41.5 81.7031C63.7103 81.7031 81.7031 63.7077 81.7031 41.5C81.7031 19.2923 63.7077 1.29688 41.5 1.29688Z" fill="white"></path><path d="M33.476 21.8958C34.0135 21.3583 34.7302 21 35.4468 21H40.6427C41.3593 21 41.7177 21.7167 41.1802 22.2542L30.9677 33.3625H36.701L42.4343 39.4542H30.9677L42.4343 51.8167H35.4468C34.7302 51.8167 33.8343 51.4583 33.2968 50.9208L21.651 38.3792C20.7552 37.3042 20.7552 35.5125 21.8302 34.4375L33.476 21.8958Z" fill="#1EA2B4"></path><path d="M49.4217 63.1042C48.8842 63.6417 48.1675 64 47.2717 64H42.0759C41.3592 64 41.0009 63.2833 41.5384 62.7458L51.93 51.6375H46.1967L40.4634 45.5458H51.93L40.4634 33.1833H47.4509C48.1675 33.1833 49.0634 33.5417 49.6009 34.0792L61.2467 46.6208C62.3217 47.6958 62.3217 49.4875 61.2467 50.5625L49.4217 63.1042Z" fill="#1EA2B4"></path></svg>