<svg xmlns="http://www.w3.org/2000/svg" width="83" height="83" viewBox="0 0 83 83" fill="none"><path d="M41.5 1.29688C19.2897 1.29688 1.29688 19.2923 1.29688 41.5C1.29688 63.7077 19.2923 81.7031 41.5 81.7031C63.7103 81.7031 81.7031 63.7077 81.7031 41.5C81.7031 19.2923 63.7077 1.29688 41.5 1.29688Z" fill="white"></path><g clip-path="url(#clip0_468_133)"><path d="M26.9199 40.885C27.1644 37.5437 28.4905 34.5136 30.5575 32.1207L24.2454 25.8086C20.5782 29.8314 18.2667 35.0915 18 40.885H26.9199Z" fill="#F58120"></path><path d="M32.1207 30.5501C34.5136 28.4831 37.5437 27.157 40.885 26.9125V18C35.0841 18.2667 29.824 20.5782 25.8086 24.2454L32.1207 30.5575V30.5501Z" fill="#F58120"></path><path d="M43.1074 18V26.9199C46.4487 27.1644 49.4788 28.4905 51.8717 30.5575L58.1838 24.2454C54.1684 20.5782 48.9083 18.2667 43.1074 18Z" fill="#F58120"></path><path d="M30.5501 51.872C28.4831 49.479 27.157 46.4489 26.9125 43.1077H18C18.2667 48.9086 20.5782 54.1686 24.2454 58.1841L30.5575 51.872H30.5501Z" fill="#F58120"></path><path d="M40.885 57.08C37.5437 56.8355 34.5136 55.5094 32.1207 53.4424L25.8086 59.7545C29.824 63.4143 35.0841 65.7332 40.885 65.9999V57.08Z" fill="#F58120"></path><path d="M57.08 43.1077C56.8355 46.4489 55.5094 49.479 53.4424 51.872L59.7545 58.1841C63.4143 54.1686 65.7332 48.9086 65.9999 43.1077H57.08Z" fill="#F58120"></path><path d="M53.4497 32.1207C55.5167 34.5136 56.8428 37.5437 57.0873 40.885H66.0072C65.7405 35.0841 63.429 29.824 59.7618 25.8086L53.4497 32.1207Z" fill="#F58120"></path><path d="M51.8717 53.4498C49.4788 55.5168 46.4487 56.8429 43.1074 57.08V65.9999C48.9009 65.7332 54.1684 63.4217 58.1838 59.7545L51.8717 53.4424V53.4498Z" fill="#F58120"></path></g><defs><clipPath id="clip0_468_133"><rect width="48" height="48" fill="white" transform="translate(18 18)"></rect></clipPath></defs></svg>