<svg xmlns="http://www.w3.org/2000/svg" width="83" height="83" viewBox="0 0 83 83" fill="none"><path d="M41.5 1.29688C19.2897 1.29688 1.29688 19.2923 1.29688 41.5C1.29688 63.7077 19.2923 81.7031 41.5 81.7031C63.7103 81.7031 81.7031 63.7077 81.7031 41.5C81.7031 19.2923 63.7077 1.29688 41.5 1.29688Z" fill="white"></path><path d="M45.2037 18H38.7607V34.0595H45.2037V18Z" fill="#FCA318"></path><path d="M34.107 27.6357H27.6641V34.0595H34.107V27.6357Z" fill="#FCA318"></path><path d="M34.1073 38.6987H18V45.1226H34.1073V38.6987Z" fill="#FCA318"></path><path d="M34.107 49.7979H27.6641V56.2217H34.107V49.7979Z" fill="#FCA318"></path><path d="M56.3356 27.6357H49.8926V34.0595H56.3356V27.6357Z" fill="#FCA318"></path><path d="M56.3356 49.7979H49.8926V56.2217H56.3356V49.7979Z" fill="#FCA318"></path><path d="M52.2911 38.6987C49.7139 38.6987 47.2799 39.4125 45.2397 40.6972C43.4142 41.8036 41.9108 43.3381 40.8012 45.1226C39.5485 47.1924 38.7969 49.5834 38.7969 52.153V65.9999H45.2397V63.6445V51.4392C45.2397 47.9418 48.0675 45.1226 51.5753 45.1226H66.0002V42.1248V38.6987H52.2911Z" fill="#FCA318"></path></svg>