<svg xmlns="http://www.w3.org/2000/svg" width="203" height="56" viewBox="0 0 203 56" fill="none"><path d="M40.5 55L27.8337 43L16.5 55H40.5Z" fill="#BFFF0B"></path><path fill-rule="evenodd" clip-rule="evenodd" d="M28.3243 43.0003C28.4996 42.9955 28.6696 43.0597 28.7967 43.1787L41.295 54.8803C41.4904 55.0632 41.553 55.345 41.4529 55.5916C41.3529 55.8382 41.1105 56 40.8408 56H17.1592C16.8962 56 16.6584 55.846 16.5541 55.6083C16.4498 55.3705 16.4989 55.0944 16.6792 54.9058L27.8626 43.2042C27.9828 43.0785 28.1489 43.005 28.3243 43.0003ZM28.3685 44.5692L18.6849 54.7016H39.1907L28.3685 44.5692Z" fill="#BFFF0B"></path><path fill-rule="evenodd" clip-rule="evenodd" d="M8.21832 0.0277326C8.46738 -0.0470882 8.7368 0.0324184 8.90658 0.23084L13.1654 5.20828L14.3568 0.501115C14.4198 0.252196 14.6192 0.0620452 14.8691 0.0125161C15.1191 -0.037013 15.375 0.0629191 15.5267 0.269295L19.5677 5.76647L21.6278 0.42445C21.7189 0.18828 21.935 0.0247337 22.1853 0.00257616C22.4356 -0.0195814 22.6767 0.103492 22.8072 0.32005L25.7727 5.2417L28.2419 0.363098C28.3558 0.138199 28.586 -0.00239894 28.8363 5.77671e-05C29.0867 0.00251454 29.3141 0.147603 29.4236 0.374693L31.7692 5.24053L34.8587 0.310119C34.9932 0.0955264 35.2369 -0.0232696 35.4872 0.00383096C35.7375 0.0309315 35.9507 0.199211 36.0369 0.437701L37.9631 5.76514L42.142 0.261039C42.2974 0.0563514 42.556 -0.0394549 42.8059 0.0151085C43.0557 0.0696718 43.2519 0.264796 43.3094 0.515983L44.3818 5.19988L48.7592 0.223948C48.9325 0.0269808 49.2046 -0.0484861 49.4534 0.0314278C49.7021 0.111342 49.8809 0.331619 49.9092 0.593366L50.4048 5.16224L55.3751 0.192985C55.5654 0.002746 55.8508 -0.0526357 56.0975 0.0528169C56.3442 0.15827 56.5032 0.403637 56.5 0.673825L55.8429 55.3423C55.8397 55.6103 55.6775 55.8502 55.4312 55.9511C55.185 56.0519 54.9028 55.994 54.7153 55.8042L28.3319 29.1055L1.6249 55.807C1.43566 55.9962 1.15217 56.0521 0.906197 55.9488C0.660221 55.8454 0.5 55.603 0.5 55.3343V0.665757C0.5 0.396285 0.661084 0.153391 0.90804 0.0504827C1.155 -0.0524251 1.43911 0.00495281 1.62773 0.195826L7.07267 5.70586L7.75246 0.577547C7.7869 0.317778 7.96926 0.102553 8.21832 0.0277326ZM6.85222 7.36899L1.82028 2.2769V45.3298L6.85222 7.36899ZM15.332 40.2279L27.4 28.1624L26.6309 27.3841L15.332 40.2279ZM27.5087 26.3862L28.3376 27.225L29.3735 26.1892L28.5395 25.2145L27.5087 26.3862ZM27.6693 24.1974L26.575 25.4413L25.5074 24.361L26.5896 22.9356L27.6693 24.1974ZM29.4235 24.2096L30.3134 25.2496L31.4273 24.1358L30.5447 22.9351L29.4235 24.2096ZM29.7413 21.8421L28.5533 23.1925L27.4095 21.8557L28.5993 20.2886L29.7413 21.8421ZM31.4401 21.9174L32.3746 23.1887L34.0389 21.5248L33.1229 20.0045L31.4401 21.9174ZM32.4054 18.8137L30.6366 20.8244L29.4343 19.1888L31.2168 16.841L32.4054 18.8137ZM34.0398 18.9622L35.003 20.5609L36.8137 18.7506L35.8977 16.8503L34.0398 18.9622ZM35.2729 15.5542L33.3223 17.7715L32.0781 15.7066L34.0771 13.0737L35.2729 15.5542ZM36.846 15.7723L37.8043 17.7602L40.0742 15.4907L39.2061 13.0895L36.846 15.7723ZM38.692 11.6677L36.2212 14.4762L34.975 11.891L37.5476 8.50261L38.692 11.6677ZM40.202 11.9574L41.1064 14.4587L44.3941 11.1718L43.6711 8.01403L40.202 11.9574ZM43.3066 6.42207L39.6879 10.5355L38.4996 7.24876L42.3383 2.19272L43.3066 6.42207ZM44.7463 6.79184L45.4967 10.0694L49.2066 6.3602L48.7587 2.2308L44.7463 6.79184ZM49.3901 8.05165L45.846 11.595L53.311 44.1996L49.3901 8.05165ZM52.1224 44.9264L44.7434 12.6974L41.6043 15.8358L52.1224 44.9264ZM40.5721 16.8678L38.4141 19.0253L50.169 43.4105L40.5721 16.8678ZM48.4217 42.8311L37.4235 20.0157L35.708 21.7309L48.4217 42.8311ZM34.7439 22.6948L33.169 24.2694L47.1639 43.3076L34.7439 22.6948ZM44.0324 41.2834L32.2217 25.2165L31.178 26.26L44.0324 41.2834ZM30.2381 27.1997L29.2695 28.1681L42.667 41.7257L30.2381 27.1997ZM54.6548 44.3433L55.1602 2.28268L50.5883 6.85369L54.6548 44.3433ZM37.0112 7.01899L35.2569 2.16705L32.4482 6.64924L34.3293 10.5514L37.0112 7.01899ZM33.4314 11.734L31.6185 7.97336L29.4774 11.3903L31.3424 14.4855L33.4314 11.734ZM30.4811 15.62L28.6898 12.6471L26.8196 15.6318L28.6163 18.076L30.4811 15.62ZM27.7813 19.1759L26.0633 16.8387L24.8176 18.8266L26.5285 20.826L27.7813 19.1759ZM25.7086 21.9059L24.0804 20.003L22.9631 21.7862L24.5671 23.4094L25.7086 21.9059ZM23.7572 24.4761L22.2398 22.9405L9.55993 43.1756L23.7572 24.4761ZM8.29511 42.7017L21.284 21.9733L19.6324 20.302L8.29511 42.7017ZM20.2638 19.0546L22.0073 20.819L23.1789 18.9494L21.3807 16.8478L20.2638 19.0546ZM20.4493 15.7593L19.2835 18.0627L17.096 15.849L18.1616 13.0856L20.4493 15.7593ZM22.0289 15.5672L23.9161 17.7729L25.2202 15.6918L23.2929 13.0699L22.0289 15.5672ZM22.415 11.8757L21.0975 14.4787L18.7034 11.6807L19.9313 8.4969L22.415 11.8757ZM23.963 11.7458L25.9765 14.4848L27.9242 11.3765L25.873 7.97219L23.963 11.7458ZM25.0674 6.63517L23.0852 10.5516L20.4968 7.03046L22.3735 2.16422L25.0674 6.63517ZM26.5783 6.57872L28.7118 10.1196L30.9395 6.56465L28.8155 2.15856L26.5783 6.57872ZM19.0021 7.2329L15.2928 2.18677L14.217 6.43726L17.7269 10.5395L19.0021 7.2329ZM17.1852 11.9443L13.8189 8.0101L12.9076 11.6106L16.077 14.8178L17.1852 11.9443ZM15.5538 16.1746L12.5276 13.1122L4.49466 44.8511L15.5538 16.1746ZM12.7914 41.1095L25.6972 26.4392L24.6976 25.4277L12.7914 41.1095ZM6.50784 43.3042L18.6522 19.31L16.5727 17.2057L6.50784 43.3042ZM3.30779 44.1568L8.02669 8.5575L11.4428 12.0145L3.30779 44.1568ZM11.8229 10.5128L8.24715 6.89437L8.86649 2.22207L12.7673 6.78111L11.8229 10.5128Z" fill="url(#paint0_linear_760_60)"></path><path d="M75.5 40V16H83.1133L88.1795 23.9909L93.2458 16H100.862V40H95.7957V23.9909L90.7295 32.0091H85.6324L80.5662 23.9909V40H75.5ZM108.136 40C106.727 40 105.525 39.6166 104.53 38.8499C103.555 38.0641 103.07 37.1152 103.07 36.0059V19.9941H108.136V34.0075C108.136 34.5513 108.383 35.0271 108.882 35.4295C109.378 35.8128 109.98 36.0059 110.683 36.0059H120.819C121.522 36.0059 122.121 35.8128 122.62 35.4295C123.116 35.0271 123.366 34.5513 123.366 34.0075V19.9941H128.432V40H108.136ZM130.64 40V16H135.706V40H130.64ZM142.978 40C141.571 40 140.369 39.6166 139.374 38.8499C138.399 38.0641 137.911 37.1152 137.911 36.0059V16H142.978V21.9925H148.044V25.9866H142.978V34.0075C142.978 34.5513 143.227 35.0271 143.726 35.4295C144.222 35.8128 144.821 36.0059 145.528 36.0059H148.044V40H142.978ZM150.252 40V21.9925H155.318V40H150.252ZM152.771 19.9941C152.065 19.9941 151.465 19.8038 150.966 19.4204C150.49 19.018 150.252 18.5422 150.252 17.9984C150.252 17.4329 150.49 16.9598 150.966 16.5764C151.465 16.193 152.065 16 152.771 16C153.474 16 154.074 16.193 154.573 16.5764C155.069 16.9598 155.318 17.4329 155.318 17.9984C155.318 18.5422 155.069 19.018 154.573 19.4204C154.074 19.8038 153.474 19.9941 152.771 19.9941ZM175.275 36.0059C175.978 36.0059 176.578 35.8128 177.076 35.4295C177.572 35.0271 177.822 34.5513 177.822 34.0075V32.0091C177.822 31.2641 177.595 30.5979 177.138 30.0134H162.592V36.0059H175.275ZM177.138 25.9866C177.595 25.4021 177.822 24.7359 177.822 23.9909V21.9925C177.822 21.4487 177.572 20.9729 177.076 20.5705C176.578 20.1872 175.978 19.9941 175.275 19.9941H162.592V25.9866H177.138ZM157.526 40V16H177.822C179.231 16 180.422 16.3834 181.397 17.1501C182.392 17.9386 182.888 18.8848 182.888 19.9941V23.9909C182.888 25.1003 182.392 26.0492 181.397 26.8349C180.422 27.6207 179.231 28.015 177.822 28.015C179.231 28.015 180.422 28.3983 181.397 29.1651C182.392 29.9508 182.888 30.8997 182.888 32.0091V36.0059C182.888 37.1152 182.392 38.0641 181.397 38.8499C180.422 39.6166 179.231 40 177.822 40H157.526ZM185.096 40V21.9925H190.162V40H185.096ZM187.612 19.9941C186.909 19.9941 186.307 19.8038 185.811 19.4204C185.334 19.018 185.096 18.5422 185.096 17.9984C185.096 17.4329 185.334 16.9598 185.811 16.5764C186.307 16.193 186.909 16 187.612 16C188.319 16 188.918 16.193 189.417 16.5764C189.913 16.9598 190.162 17.4329 190.162 17.9984C190.162 18.5422 189.913 19.018 189.417 19.4204C188.918 19.8038 188.319 19.9941 187.612 19.9941ZM197.437 40C196.027 40 194.825 39.6166 193.83 38.8499C192.855 38.0641 192.368 37.1152 192.368 36.0059V16H197.437V21.9925H202.5V25.9866H197.437V34.0075C197.437 34.5513 197.683 35.0271 198.182 35.4295C198.678 35.8128 199.278 36.0059 199.984 36.0059H202.5V40H197.437Z" fill="#BFFF0B"></path><defs><linearGradient id="paint0_linear_760_60" x1="28.5006" y1="0.000248867" x2="28.5006" y2="56.0009" gradientUnits="userSpaceOnUse"><stop stop-color="#0BC4FF"></stop><stop offset="0.015625" stop-color="#0BC4FF"></stop><stop offset="0.0195312" stop-color="#0CC5FD"></stop><stop offset="0.0234375" stop-color="#0DC5FC"></stop><stop offset="0.0273438" stop-color="#0EC5FB"></stop><stop offset="0.03125" stop-color="#0FC5FA"></stop><stop offset="0.0351562" stop-color="#0FC5F9"></stop><stop offset="0.0390625" stop-color="#10C6F8"></stop><stop offset="0.0429688" stop-color="#11C6F7"></stop><stop offset="0.046875" stop-color="#11C6F6"></stop><stop offset="0.0507812" stop-color="#12C6F5"></stop><stop offset="0.0546875" stop-color="#13C7F4"></stop><stop offset="0.0585937" stop-color="#14C7F3"></stop><stop offset="0.0625" stop-color="#14C7F2"></stop><stop offset="0.0664062" stop-color="#15C7F1"></stop><stop offset="0.0703125" stop-color="#16C8F0"></stop><stop offset="0.0742187" stop-color="#16C8EF"></stop><stop offset="0.078125" stop-color="#17C8EE"></stop><stop offset="0.0820312" stop-color="#18C8ED"></stop><stop offset="0.0859375" stop-color="#19C9EC"></stop><stop offset="0.0898437" stop-color="#19C9EC"></stop><stop offset="0.09375" stop-color="#1AC9EB"></stop><stop offset="0.0976562" stop-color="#1BC9EA"></stop><stop offset="0.101562" stop-color="#1BCAE9"></stop><stop offset="0.105469" stop-color="#1CCAE8"></stop><stop offset="0.109375" stop-color="#1DCAE7"></stop><stop offset="0.113281" stop-color="#1ECAE6"></stop><stop offset="0.117187" stop-color="#1ECAE5"></stop><stop offset="0.121094" stop-color="#1FCBE4"></stop><stop offset="0.125" stop-color="#20CBE3"></stop><stop offset="0.128906" stop-color="#21CBE2"></stop><stop offset="0.132812" stop-color="#21CBE1"></stop><stop offset="0.136719" stop-color="#22CCE0"></stop><stop offset="0.140625" stop-color="#23CCDF"></stop><stop offset="0.144531" stop-color="#23CCDE"></stop><stop offset="0.148437" stop-color="#24CCDD"></stop><stop offset="0.152344" stop-color="#25CDDC"></stop><stop offset="0.15625" stop-color="#26CDDB"></stop><stop offset="0.160156" stop-color="#26CDDA"></stop><stop offset="0.164062" stop-color="#27CDD9"></stop><stop offset="0.167969" stop-color="#28CED8"></stop><stop offset="0.171875" stop-color="#28CED7"></stop><stop offset="0.175781" stop-color="#29CED6"></stop><stop offset="0.179687" stop-color="#2ACED5"></stop><stop offset="0.183594" stop-color="#2BCED4"></stop><stop offset="0.1875" stop-color="#2BCFD3"></stop><stop offset="0.191406" stop-color="#2CCFD2"></stop><stop offset="0.195312" stop-color="#2DCFD1"></stop><stop offset="0.199219" stop-color="#2ECFD0"></stop><stop offset="0.203125" stop-color="#2ED0CF"></stop><stop offset="0.207031" stop-color="#2FD0CE"></stop><stop offset="0.210938" stop-color="#30D0CD"></stop><stop offset="0.214844" stop-color="#30D0CC"></stop><stop offset="0.21875" stop-color="#31D1CB"></stop><stop offset="0.222656" stop-color="#32D1CA"></stop><stop offset="0.226562" stop-color="#33D1C9"></stop><stop offset="0.230469" stop-color="#33D1C8"></stop><stop offset="0.234375" stop-color="#34D2C7"></stop><stop offset="0.238281" stop-color="#35D2C6"></stop><stop offset="0.242187" stop-color="#35D2C5"></stop><stop offset="0.246094" stop-color="#36D2C4"></stop><stop offset="0.25" stop-color="#37D2C3"></stop><stop offset="0.253906" stop-color="#38D3C3"></stop><stop offset="0.257812" stop-color="#38D3C2"></stop><stop offset="0.261719" stop-color="#39D3C1"></stop><stop offset="0.265625" stop-color="#3AD3C0"></stop><stop offset="0.269531" stop-color="#3AD4BF"></stop><stop offset="0.273437" stop-color="#3BD4BE"></stop><stop offset="0.277344" stop-color="#3CD4BD"></stop><stop offset="0.28125" stop-color="#3DD4BC"></stop><stop offset="0.285156" stop-color="#3DD5BB"></stop><stop offset="0.289062" stop-color="#3ED5BA"></stop><stop offset="0.292969" stop-color="#3FD5B9"></stop><stop offset="0.296875" stop-color="#40D5B8"></stop><stop offset="0.300781" stop-color="#40D6B7"></stop><stop offset="0.304688" stop-color="#41D6B6"></stop><stop offset="0.308594" stop-color="#42D6B5"></stop><stop offset="0.3125" stop-color="#42D6B4"></stop><stop offset="0.316406" stop-color="#43D6B3"></stop><stop offset="0.320312" stop-color="#44D7B2"></stop><stop offset="0.324219" stop-color="#45D7B1"></stop><stop offset="0.328125" stop-color="#45D7B0"></stop><stop offset="0.332031" stop-color="#46D7AF"></stop><stop offset="0.335938" stop-color="#47D8AE"></stop><stop offset="0.339844" stop-color="#47D8AD"></stop><stop offset="0.34375" stop-color="#48D8AC"></stop><stop offset="0.347656" stop-color="#49D8AB"></stop><stop offset="0.351562" stop-color="#4AD9AA"></stop><stop offset="0.355469" stop-color="#4AD9A9"></stop><stop offset="0.359375" stop-color="#4BD9A8"></stop><stop offset="0.363281" stop-color="#4CD9A7"></stop><stop offset="0.367187" stop-color="#4CDAA6"></stop><stop offset="0.371094" stop-color="#4DDAA5"></stop><stop offset="0.375" stop-color="#4EDAA4"></stop><stop offset="0.378906" stop-color="#4FDAA3"></stop><stop offset="0.382812" stop-color="#4FDAA2"></stop><stop offset="0.386719" stop-color="#50DBA1"></stop><stop offset="0.390625" stop-color="#51DBA0"></stop><stop offset="0.394531" stop-color="#52DB9F"></stop><stop offset="0.398437" stop-color="#52DB9E"></stop><stop offset="0.402344" stop-color="#53DC9D"></stop><stop offset="0.40625" stop-color="#54DC9C"></stop><stop offset="0.410156" stop-color="#54DC9B"></stop><stop offset="0.414062" stop-color="#55DC9A"></stop><stop offset="0.417969" stop-color="#56DD99"></stop><stop offset="0.421875" stop-color="#57DD99"></stop><stop offset="0.425781" stop-color="#57DD98"></stop><stop offset="0.429688" stop-color="#58DD97"></stop><stop offset="0.433594" stop-color="#59DE96"></stop><stop offset="0.4375" stop-color="#59DE95"></stop><stop offset="0.441406" stop-color="#5ADE94"></stop><stop offset="0.445312" stop-color="#5BDE93"></stop><stop offset="0.449219" stop-color="#5CDE92"></stop><stop offset="0.453125" stop-color="#5CDF91"></stop><stop offset="0.457031" stop-color="#5DDF90"></stop><stop offset="0.460937" stop-color="#5EDF8F"></stop><stop offset="0.464844" stop-color="#5EDF8E"></stop><stop offset="0.46875" stop-color="#5FE08D"></stop><stop offset="0.472656" stop-color="#60E08C"></stop><stop offset="0.476562" stop-color="#61E08B"></stop><stop offset="0.480469" stop-color="#61E08A"></stop><stop offset="0.484375" stop-color="#62E189"></stop><stop offset="0.488281" stop-color="#63E188"></stop><stop offset="0.492187" stop-color="#64E187"></stop><stop offset="0.496094" stop-color="#64E186"></stop><stop offset="0.5" stop-color="#65E285"></stop><stop offset="0.503906" stop-color="#66E284"></stop><stop offset="0.507812" stop-color="#66E283"></stop><stop offset="0.511719" stop-color="#67E282"></stop><stop offset="0.515625" stop-color="#68E281"></stop><stop offset="0.519531" stop-color="#69E380"></stop><stop offset="0.523438" stop-color="#69E37F"></stop><stop offset="0.527344" stop-color="#6AE37E"></stop><stop offset="0.53125" stop-color="#6BE37D"></stop><stop offset="0.535156" stop-color="#6BE47C"></stop><stop offset="0.539062" stop-color="#6CE47B"></stop><stop offset="0.542969" stop-color="#6DE47A"></stop><stop offset="0.546875" stop-color="#6EE479"></stop><stop offset="0.550781" stop-color="#6EE578"></stop><stop offset="0.554688" stop-color="#6FE577"></stop><stop offset="0.558594" stop-color="#70E576"></stop><stop offset="0.5625" stop-color="#71E575"></stop><stop offset="0.566406" stop-color="#71E674"></stop><stop offset="0.570312" stop-color="#72E673"></stop><stop offset="0.574219" stop-color="#73E672"></stop><stop offset="0.578125" stop-color="#73E671"></stop><stop offset="0.582031" stop-color="#74E670"></stop><stop offset="0.585937" stop-color="#75E76F"></stop><stop offset="0.589844" stop-color="#76E76F"></stop><stop offset="0.59375" stop-color="#76E76E"></stop><stop offset="0.597656" stop-color="#77E76D"></stop><stop offset="0.601562" stop-color="#78E86C"></stop><stop offset="0.605469" stop-color="#78E86B"></stop><stop offset="0.609375" stop-color="#79E86A"></stop><stop offset="0.613281" stop-color="#7AE869"></stop><stop offset="0.617187" stop-color="#7BE968"></stop><stop offset="0.621094" stop-color="#7BE967"></stop><stop offset="0.625" stop-color="#7CE966"></stop><stop offset="0.628906" stop-color="#7DE965"></stop><stop offset="0.632812" stop-color="#7DEA64"></stop><stop offset="0.636719" stop-color="#7EEA63"></stop><stop offset="0.640625" stop-color="#7FEA62"></stop><stop offset="0.644531" stop-color="#80EA61"></stop><stop offset="0.648437" stop-color="#80EB60"></stop><stop offset="0.652344" stop-color="#81EB5F"></stop><stop offset="0.65625" stop-color="#82EB5E"></stop><stop offset="0.660156" stop-color="#83EB5D"></stop><stop offset="0.664062" stop-color="#83EB5C"></stop><stop offset="0.667969" stop-color="#84EC5B"></stop><stop offset="0.671875" stop-color="#85EC5A"></stop><stop offset="0.675781" stop-color="#85EC59"></stop><stop offset="0.679687" stop-color="#86EC58"></stop><stop offset="0.683594" stop-color="#87ED57"></stop><stop offset="0.6875" stop-color="#88ED56"></stop><stop offset="0.691406" stop-color="#88ED55"></stop><stop offset="0.695312" stop-color="#89ED54"></stop><stop offset="0.699219" stop-color="#8AEE53"></stop><stop offset="0.703125" stop-color="#8AEE52"></stop><stop offset="0.707031" stop-color="#8BEE51"></stop><stop offset="0.710937" stop-color="#8CEE50"></stop><stop offset="0.714844" stop-color="#8DEF4F"></stop><stop offset="0.71875" stop-color="#8DEF4E"></stop><stop offset="0.722656" stop-color="#8EEF4D"></stop><stop offset="0.726562" stop-color="#8FEF4C"></stop><stop offset="0.730469" stop-color="#8FEF4B"></stop><stop offset="0.734375" stop-color="#90F04A"></stop><stop offset="0.738281" stop-color="#91F049"></stop><stop offset="0.742188" stop-color="#92F048"></stop><stop offset="0.746094" stop-color="#92F047"></stop><stop offset="0.75" stop-color="#93F146"></stop><stop offset="0.753906" stop-color="#94F146"></stop><stop offset="0.757812" stop-color="#95F145"></stop><stop offset="0.761719" stop-color="#95F144"></stop><stop offset="0.765625" stop-color="#96F243"></stop><stop offset="0.769531" stop-color="#97F242"></stop><stop offset="0.773437" stop-color="#97F241"></stop><stop offset="0.777344" stop-color="#98F240"></stop><stop offset="0.78125" stop-color="#99F33F"></stop><stop offset="0.785156" stop-color="#9AF33E"></stop><stop offset="0.789062" stop-color="#9AF33D"></stop><stop offset="0.792969" stop-color="#9BF33C"></stop><stop offset="0.796875" stop-color="#9CF33B"></stop><stop offset="0.800781" stop-color="#9CF43A"></stop><stop offset="0.804687" stop-color="#9DF439"></stop><stop offset="0.808594" stop-color="#9EF438"></stop><stop offset="0.8125" stop-color="#9FF437"></stop><stop offset="0.816406" stop-color="#9FF536"></stop><stop offset="0.820312" stop-color="#A0F535"></stop><stop offset="0.824219" stop-color="#A1F534"></stop><stop offset="0.828125" stop-color="#A1F533"></stop><stop offset="0.832031" stop-color="#A2F632"></stop><stop offset="0.835937" stop-color="#A3F631"></stop><stop offset="0.839844" stop-color="#A4F630"></stop><stop offset="0.84375" stop-color="#A4F62F"></stop><stop offset="0.847656" stop-color="#A5F72E"></stop><stop offset="0.851562" stop-color="#A6F72D"></stop><stop offset="0.855469" stop-color="#A7F72C"></stop><stop offset="0.859375" stop-color="#A7F72B"></stop><stop offset="0.863281" stop-color="#A8F72A"></stop><stop offset="0.867187" stop-color="#A9F829"></stop><stop offset="0.871094" stop-color="#A9F828"></stop><stop offset="0.875" stop-color="#AAF827"></stop><stop offset="0.878906" stop-color="#ABF826"></stop><stop offset="0.882812" stop-color="#ACF925"></stop><stop offset="0.886719" stop-color="#ACF924"></stop><stop offset="0.890625" stop-color="#ADF923"></stop><stop offset="0.894531" stop-color="#AEF922"></stop><stop offset="0.898437" stop-color="#AEFA21"></stop><stop offset="0.902344" stop-color="#AFFA20"></stop><stop offset="0.90625" stop-color="#B0FA1F"></stop><stop offset="0.910156" stop-color="#B1FA1E"></stop><stop offset="0.914062" stop-color="#B1FB1D"></stop><stop offset="0.917969" stop-color="#B2FB1C"></stop><stop offset="0.921875" stop-color="#B3FB1C"></stop><stop offset="0.925781" stop-color="#B3FB1B"></stop><stop offset="0.929687" stop-color="#B4FB1A"></stop><stop offset="0.933594" stop-color="#B5FC19"></stop><stop offset="0.9375" stop-color="#B6FC18"></stop><stop offset="0.941406" stop-color="#B6FC17"></stop><stop offset="0.945312" stop-color="#B7FC16"></stop><stop offset="0.949219" stop-color="#B8FD15"></stop><stop offset="0.953125" stop-color="#B9FD14"></stop><stop offset="0.957031" stop-color="#B9FD13"></stop><stop offset="0.960937" stop-color="#BAFD12"></stop><stop offset="0.964844" stop-color="#BBFE11"></stop><stop offset="0.96875" stop-color="#BBFE10"></stop><stop offset="0.972656" stop-color="#BCFE0F"></stop><stop offset="0.976563" stop-color="#BDFE0E"></stop><stop offset="0.980469" stop-color="#BEFF0D"></stop><stop offset="0.984375" stop-color="#BEFF0C"></stop><stop offset="1" stop-color="#BFFF0B"></stop></linearGradient></defs></svg>