<svg xmlns="http://www.w3.org/2000/svg" width="83" height="83" viewBox="0 0 83 83" fill="none"><path d="M41.5 1.29688C19.2897 1.29688 1.29688 19.2923 1.29688 41.5C1.29688 63.7077 19.2923 81.7031 41.5 81.7031C63.7103 81.7031 81.7031 63.7077 81.7031 41.5C81.7031 19.2923 63.7077 1.29688 41.5 1.29688Z" fill="white"></path><g clip-path="url(#clip0_468_114)"><path d="M63 65.9008L21 40.9499V17L63 41.3497V65.9008Z" fill="#60C4B3"></path><path d="M63 41.5841L21 65.9999V41.1482L63 17.033V41.5841Z" fill="#072B37"></path><path d="M63 65.9007L42.1675 53.4072V29.1567L63 41.3496V65.9007Z" fill="#60C4B3"></path><path d="M42.1346 29.0576L42.1675 53.7079L21 40.9499L42.1346 29.0576Z" fill="#184356"></path></g><defs><clipPath id="clip0_468_114"><rect width="42" height="49" fill="white" transform="translate(21 17)"></rect></clipPath></defs></svg>